<?xml version="1.0" standalone="no"?>
<!DOCTYPE svg PUBLIC "-//W3C//DTD SVG 20010904//EN"
 "http://www.w3.org/TR/2001/REC-SVG-20010904/DTD/svg10.dtd">
<svg version="1.0" xmlns="http://www.w3.org/2000/svg"
 width="2194.000000pt" height="2194.000000pt" viewBox="0 0 2194.000000 2194.000000"
 preserveAspectRatio="xMidYMid meet">
<metadata>
Created by potrace 1.14, written by Peter Selinger 2001-2017
</metadata>
<g transform="translate(0.000000,2194.000000) scale(0.100000,-0.100000)"
fill="#000000" stroke="none">
<path d="M10568 21935 c-2 -1 -68 -6 -148 -9 -80 -4 -161 -9 -180 -11 -19 -2
-80 -6 -135 -10 -55 -4 -111 -8 -125 -10 -14 -1 -63 -6 -109 -10 -45 -4 -90
-8 -99 -10 -9 -2 -46 -6 -82 -10 -36 -3 -90 -10 -120 -15 -52 -8 -77 -12 -190
-25 -25 -3 -70 -10 -100 -15 -30 -5 -71 -12 -90 -15 -19 -3 -46 -7 -60 -10
-14 -3 -41 -7 -60 -10 -19 -3 -48 -8 -65 -12 -16 -3 -37 -7 -45 -8 -31 -5
-201 -39 -255 -51 -11 -3 -31 -7 -45 -10 -235 -48 -752 -186 -1035 -277 -254
-82 -727 -256 -895 -329 -25 -11 -61 -27 -80 -35 -65 -28 -55 -23 -290 -129
-36 -16 -157 -75 -270 -131 -521 -257 -1035 -567 -1493 -897 -54 -39 -121 -87
-147 -106 -95 -68 -415 -318 -480 -374 -20 -17 -60 -51 -90 -76 -49 -41 -77
-65 -205 -178 -268 -237 -653 -621 -875 -872 -36 -40 -81 -92 -101 -114 -48
-54 -246 -290 -284 -340 -16 -21 -34 -44 -40 -50 -24 -27 -236 -307 -280 -370
-11 -15 -32 -44 -48 -63 -15 -20 -27 -39 -27 -42 0 -4 -8 -16 -18 -27 -73 -79
-492 -744 -622 -989 -61 -113 -81 -148 -92 -162 -6 -7 -8 -13 -5 -13 3 0 -14
-36 -39 -81 -43 -77 -234 -464 -234 -473 0 -2 -18 -44 -41 -93 -95 -205 -227
-527 -308 -753 -94 -265 -214 -638 -266 -830 -27 -101 -126 -503 -130 -530 -3
-19 -8 -43 -11 -52 -8 -26 -66 -310 -78 -383 -3 -16 -12 -70 -20 -120 -9 -49
-18 -108 -21 -130 -3 -22 -8 -51 -10 -65 -3 -14 -7 -43 -10 -65 -3 -22 -8 -51
-10 -65 -3 -14 -7 -47 -11 -75 -3 -27 -7 -62 -10 -76 -2 -14 -6 -52 -9 -85 -3
-32 -8 -75 -11 -94 -6 -41 -9 -79 -24 -255 -6 -71 -12 -153 -15 -181 -27 -319
-27 -1113 0 -1474 3 -36 7 -95 10 -131 7 -96 14 -173 25 -274 6 -49 12 -115
15 -145 3 -30 7 -66 10 -80 6 -32 14 -96 20 -146 3 -34 9 -70 30 -204 2 -14 7
-45 10 -70 4 -25 24 -137 46 -250 41 -217 42 -220 58 -290 5 -25 12 -56 14
-70 3 -14 10 -45 17 -70 7 -25 14 -55 16 -68 9 -49 97 -384 139 -527 130 -452
350 -1052 522 -1425 14 -30 32 -71 41 -90 72 -161 260 -534 374 -740 14 -25
40 -72 58 -105 108 -196 368 -609 532 -845 77 -111 267 -372 277 -380 3 -3 19
-23 35 -45 33 -44 248 -315 282 -355 12 -14 41 -47 64 -75 311 -366 736 -798
1100 -1116 591 -518 1230 -970 1905 -1349 134 -75 675 -351 755 -384 25 -11
72 -32 105 -47 347 -161 981 -394 1425 -523 169 -49 456 -122 670 -171 8 -2
38 -9 65 -15 28 -7 64 -14 80 -17 17 -2 48 -9 70 -15 22 -5 51 -12 65 -14 14
-2 59 -11 100 -19 84 -16 231 -41 300 -50 24 -4 47 -8 50 -10 3 -2 37 -6 75
-10 39 -4 72 -9 75 -10 3 -2 30 -6 60 -10 30 -3 66 -8 80 -10 14 -2 50 -6 80
-10 89 -9 153 -16 190 -20 19 -2 64 -6 100 -9 36 -3 97 -9 135 -12 75 -7 101
-8 330 -21 287 -15 1030 -9 1280 12 28 2 86 7 130 10 109 9 162 14 215 20 25
3 72 7 105 10 60 6 96 10 170 19 22 3 60 8 84 11 23 3 55 7 70 10 15 3 43 7
62 9 60 8 230 36 369 61 74 13 144 26 155 28 30 5 171 36 244 54 36 8 72 16
80 18 9 2 48 11 86 20 39 9 77 18 85 20 49 10 315 79 370 95 303 91 392 118
580 183 340 117 691 254 925 361 39 18 104 48 145 66 204 92 733 368 914 479
37 22 70 41 72 41 3 0 73 43 154 95 19 12 80 51 135 86 248 158 496 331 750
521 48 36 367 291 390 312 17 15 48 41 69 59 58 48 218 188 331 291 123 111
531 520 640 641 44 48 87 95 96 104 84 84 433 511 590 721 172 230 211 286
389 550 114 169 317 503 407 670 20 36 39 70 43 75 27 37 295 561 345 675 15
36 44 99 62 140 39 86 44 96 73 165 12 28 27 64 35 80 7 17 22 53 33 80 11 28
35 86 52 130 63 156 197 532 256 720 70 219 196 674 218 785 3 14 7 34 10 45
10 40 65 292 70 321 3 16 8 39 10 50 2 12 7 37 10 55 3 19 8 45 11 59 3 14 8
41 11 60 3 19 7 43 10 53 3 10 7 31 9 48 9 66 16 115 20 129 3 8 7 35 10 60 3
25 7 56 10 70 4 25 8 49 21 155 4 33 9 62 9 65 1 3 5 41 10 85 4 44 9 87 10
95 2 8 6 49 10 90 4 41 8 91 11 110 2 19 6 80 10 135 3 55 8 111 10 125 10 65
19 399 19 730 -1 386 -8 599 -30 855 -4 39 -8 95 -10 125 -4 51 -11 123 -20
195 -2 17 -7 57 -10 90 -3 33 -8 74 -10 90 -3 17 -7 46 -9 65 -9 63 -37 255
-42 280 -2 14 -7 43 -10 65 -37 260 -149 773 -249 1140 -27 100 -135 459 -144
480 -5 11 -19 52 -31 90 -55 174 -192 539 -277 740 -36 85 -37 87 -98 225 -31
69 -63 142 -72 163 -48 117 -367 729 -451 867 -12 19 -27 46 -34 60 -7 14 -27
48 -44 75 -17 28 -69 111 -114 185 -46 74 -98 156 -116 183 -19 26 -34 49 -34
52 0 3 -17 29 -37 58 -20 28 -66 95 -102 147 -76 110 -235 330 -289 399 -20
26 -46 60 -57 75 -42 58 -402 496 -424 516 -3 3 -26 28 -50 55 -250 283 -661
694 -895 896 -22 19 -52 45 -66 59 -15 14 -51 46 -81 71 -74 63 -211 178 -229
192 -8 7 -67 53 -130 103 -459 362 -1011 731 -1470 981 -30 16 -98 54 -150 83
-85 47 -497 252 -625 310 -89 41 -369 161 -405 175 -19 7 -125 47 -235 90
-212 81 -668 236 -822 279 -51 14 -132 37 -180 51 -49 13 -176 46 -283 74
-170 42 -237 58 -325 75 -11 2 -50 11 -88 20 -37 9 -82 18 -100 21 -17 3 -81
15 -142 26 -122 23 -122 23 -290 49 -66 11 -142 22 -170 25 -27 3 -59 8 -70
10 -11 3 -49 7 -84 10 -35 3 -66 7 -70 9 -3 2 -46 7 -96 11 -49 4 -92 8 -95
10 -3 1 -50 6 -105 10 -55 3 -111 8 -125 10 -14 1 -77 6 -140 10 -63 4 -133 9
-155 11 -46 5 -972 14 -977 9z"/>
</g>
</svg>
